<mxfile host="app.diagrams.net" modified="2024-03-12T06:20:51.474Z" agent="Mozilla/5.0 (Macintosh; Intel Mac OS X 10_15_7) AppleWebKit/537.36 (KHTML, like Gecko) Chrome/119.0.0.0 Safari/537.36" version="24.0.2" etag="I-87dpTwqVRJrwdhbMGP" type="github">
  <diagram name="Page-1" id="y3ixxYSRUJO6yRPbH9Pz">
    <mxGraphModel>
      <root>
        <mxCell id="0" />
        <mxCell id="1" parent="0" />
      </root>
    </mxGraphModel>
  </diagram>
</mxfile>
